<?xml version="1.0" encoding="utf-8"?>
<!-- Generator: Adobe Illustrator 16.0.0, SVG Export Plug-In . SVG Version: 6.00 Build 0)  -->
<!DOCTYPE svg PUBLIC "-//W3C//DTD SVG 1.1//EN" "http://www.w3.org/Graphics/SVG/1.1/DTD/svg11.dtd">
<svg version="1.1" id="Layer_1" xmlns="http://www.w3.org/2000/svg" xmlns:xlink="http://www.w3.org/1999/xlink" x="0px" y="0px"
	 width="286px" height="60px" viewBox="0 0 286 60" enable-background="new 0 0 286 60" xml:space="preserve">
<g>
	<path fill="#F05F40" d="M12.237,41.354c-0.514-1.559-0.769-3.526-0.769-6.172c0-2.647,0.255-4.619,0.769-6.175
		c1.436-4.462,5.24-6.9,10.221-6.9c3.699,0,6.628,1.505,8.582,3.892c0.151,0.206,0.202,0.517-0.052,0.724l-3.235,2.854
		c-0.258,0.209-0.514,0.157-0.721-0.102c-1.234-1.4-2.518-2.18-4.573-2.18c-2.208,0-3.902,1.09-4.623,3.27
		c-0.408,1.248-0.513,2.699-0.513,4.617c0,1.92,0.104,3.424,0.513,4.67c0.72,2.125,2.415,3.215,4.623,3.215
		c2.055,0,3.339-0.779,4.573-2.176c0.207-0.264,0.463-0.264,0.721-0.056l3.235,2.854c0.254,0.207,0.203,0.467,0.052,0.727
		c-1.953,2.336-4.882,3.839-8.582,3.839C17.477,48.253,13.673,45.812,12.237,41.354"/>
	<path fill="#F05F40" d="M124.477,41.354c-0.514-1.559-0.769-3.526-0.769-6.172c0-2.647,0.255-4.619,0.769-6.175
		c1.439-4.462,5.239-6.9,10.22-6.9c3.7,0,6.63,1.505,8.581,3.892c0.153,0.206,0.206,0.517-0.053,0.724l-3.236,2.854
		c-0.257,0.209-0.512,0.157-0.718-0.102c-1.232-1.4-2.517-2.18-4.574-2.18c-2.207,0-3.903,1.09-4.621,3.27
		c-0.412,1.248-0.512,2.699-0.512,4.617c0,1.92,0.1,3.424,0.512,4.67c0.718,2.125,2.414,3.215,4.621,3.215
		c2.057,0,3.342-0.779,4.574-2.176c0.206-0.264,0.462-0.264,0.718-0.056l3.236,2.854c0.259,0.207,0.206,0.467,0.053,0.727
		c-1.951,2.336-4.881,3.839-8.581,3.839C129.716,48.253,125.916,45.812,124.477,41.354"/>
	<path fill="#F05F40" d="M254.202,47.684c-0.308,0-0.513-0.205-0.513-0.52V32.743c0-3.217-1.594-5.449-4.678-5.449
		c-2.979,0-4.725,2.231-4.725,5.449v14.421c0,0.312-0.207,0.52-0.514,0.52h-4.728c-0.308,0-0.515-0.205-0.515-0.52V32.743
		c0-3.217-1.592-5.449-4.67-5.449c-2.981,0-4.729,2.231-4.729,5.449v14.421c0,0.312-0.205,0.52-0.514,0.52h-4.726
		c-0.311,0-0.514-0.205-0.514-0.52V23.196c0-0.312,0.203-0.52,0.514-0.52h4.726c0.309,0,0.514,0.208,0.514,0.52v1.816h0.052
		c1.08-1.557,3.236-2.905,6.523-2.905c2.93,0,5.292,1.191,6.779,3.319h0.053c1.9-2.073,4.367-3.319,7.912-3.319
		c5.751,0,8.99,3.942,8.99,9.286v15.771c0,0.313-0.207,0.521-0.517,0.521H254.202L254.202,47.684z"/>
	<path fill="#F05F40" d="M266.578,57.021c-0.307,0-0.512-0.209-0.512-0.521v-4.148c0-0.311,0.205-0.521,0.512-0.521h0.926
		c1.951,0,2.93-0.878,3.699-2.955l0.72-2.127l-9.042-23.553c-0.104-0.312,0.104-0.52,0.413-0.52h5.084
		c0.308,0,0.515,0.208,0.614,0.52l5.602,16.342h0.102l5.344-16.342c0.104-0.312,0.309-0.52,0.613-0.52h4.88
		c0.312,0,0.517,0.208,0.411,0.52l-9.449,26.043c-2.156,5.914-4.215,7.781-8.322,7.781L266.578,57.021L266.578,57.021z"/>
	<path fill="#F05F40" d="M35.766,41.355c-0.565-1.767-0.822-3.426-0.822-6.174c0-2.746,0.257-4.406,0.822-6.167
		c1.387-4.358,5.185-6.901,10.218-6.901c4.98,0,8.78,2.542,10.167,6.901c0.562,1.76,0.821,3.42,0.821,6.167
		c0,2.748-0.259,4.407-0.821,6.174c-1.388,4.355-5.187,6.896-10.167,6.896C40.951,48.253,37.153,45.712,35.766,41.355 M50.605,39.8
		c0.412-1.295,0.514-2.489,0.514-4.618c0-2.121-0.102-3.265-0.514-4.611c-0.718-2.073-2.311-3.269-4.621-3.269
		c-2.309,0-3.955,1.196-4.672,3.269c-0.409,1.348-0.513,2.49-0.513,4.611c0,2.129,0.104,3.323,0.513,4.618
		c0.717,2.077,2.364,3.267,4.672,3.267C48.294,43.064,49.887,41.876,50.605,39.8"/>
	<path fill="#F05F40" d="M157.043,22.107c-4.059,0-6.779,0.985-8.785,2.438c-0.203,0.158-0.256,0.414-0.1,0.673l1.896,3.426
		c0.158,0.26,0.463,0.312,0.721,0.104c1.183-0.932,2.875-1.713,5.651-1.713c4.048,0,5.421,1.228,5.491,3.927h0.001v0.033
		c0.002,0.063,0.002,0.127,0.002,0.194v8.094c0,2.854-1.95,4.251-5.494,4.251c-2.776,0-4.264-1.035-4.264-3.109
		c0-2.336,1.646-3.376,5.342-3.376l1.124,0.002c0.309,0,0.516-0.207,0.516-0.517v-3.326c0-0.31-0.207-0.517-0.516-0.517h-0.247
		l-1.801-0.002c-6.112,0-9.917,2.494-9.917,7.938c0,5.241,3.805,7.626,8.322,7.626c3.49,0,5.804-1.191,6.986-2.904h0.049v1.816
		c0,0.312,0.209,0.52,0.516,0.52h4.314c0.309,0,0.515-0.207,0.515-0.52V30.824C167.367,24.703,164.594,22.107,157.043,22.107"/>
	<path fill="#F05F40" d="M95.672,32.688c-0.134,0-0.222,0.09-0.222,0.224v0.147v0.435v2.747v0.369v0.213
		c0,0.135,0.088,0.225,0.222,0.225H95.8h12.592c0.36,0,0.566-0.206,0.566-0.516c0-4.049-0.259-5.762-0.822-7.524
		c-1.389-4.254-5.086-6.899-10.172-6.899c-4.931,0-8.731,2.541-10.12,6.899c-0.511,1.608-0.822,3.58-0.822,6.175
		c0,2.594,0.36,4.512,0.877,6.121c1.386,4.356,5.083,6.95,10.322,6.95c4.57,0,8.066-1.765,10.17-4.254
		c0.204-0.258,0.204-0.517-0.052-0.728l-3.028-2.696c-0.259-0.207-0.515-0.153-0.773,0.104c-1.231,1.35-3.029,2.387-5.803,2.387
		c-2.771,0-4.725-1.348-5.547-3.785c-0.124-0.342-0.227-0.699-0.292-1.088h-0.001c-0.187-1.057-0.297-2.084-0.297-3.594
		c0.04-1.424,0.122-2.332,0.324-3.488c0.002-0.016,0.005-0.029,0.008-0.045c0.002-0.012,0.004-0.021,0.006-0.032v0.001
		c0.049-0.271,0.116-0.528,0.199-0.783c0.668-2.023,2.517-3.216,4.882-3.216c2.312,0,4.158,1.193,4.826,3.216
		c0.207,0.626,0.308,1.245,0.308,2.129c0,0.207-0.102,0.309-0.308,0.309h-6.749h0.001L95.672,32.688L95.672,32.688z"/>
	<path fill="#F05F40" d="M82.25,12.408h-4.718c-0.311,0-0.516,0.207-0.516,0.515v12.121l0,0v10.024c0,0.027,0,0.054,0,0.08
		s0,0.054,0,0.08v1.33H76.99c-0.055,1.43-0.21,2.371-0.485,3.252c-0.667,2.069-2.26,3.209-4.617,3.209
		c-2.308,0-3.897-1.14-4.567-3.209c-0.358-1.142-0.51-2.383-0.51-4.662c0-2.278,0.152-3.523,0.51-4.661
		c0.657-2.031,2.195-3.178,4.427-3.223h2.014c0.098-0.024,0.162-0.101,0.162-0.213l0.026-4.736c0-0.121-0.076-0.202-0.188-0.216
		l-1.608-0.006h-1.89v0.001c-4.135,0.044-7.162,2.06-8.43,6.005c-0.616,1.919-0.872,3.683-0.872,7.048s0.256,5.127,0.872,7.043
		c1.282,3.99,4.36,6.01,8.565,6.01c3.336,0,5.388-1.241,6.565-2.953h0.05v1.865c0,0.312,0.206,0.519,0.516,0.519h4.718
		c0.308,0,0.514-0.206,0.514-0.519v-34.19C82.764,12.614,82.558,12.408,82.25,12.408"/>
	<path fill="#F05F40" d="M205.936,32.688c-0.133,0-0.223,0.09-0.223,0.224v0.147v0.435v2.747v0.369v0.213
		c0,0.135,0.09,0.225,0.223,0.225h0.129h12.594c0.359,0,0.564-0.206,0.564-0.516c0-4.049-0.258-5.762-0.82-7.524
		c-1.389-4.254-5.088-6.899-10.172-6.899c-4.932,0-8.731,2.541-10.121,6.899c-0.512,1.608-0.821,3.58-0.821,6.175
		c0,2.594,0.36,4.512,0.877,6.121c1.385,4.356,5.083,6.95,10.321,6.95c4.57,0,8.066-1.765,10.172-4.254
		c0.203-0.258,0.203-0.517-0.053-0.728l-3.028-2.696c-0.259-0.207-0.515-0.153-0.772,0.104c-1.23,1.35-3.027,2.387-5.804,2.387
		c-2.771,0-4.724-1.348-5.547-3.785c-0.123-0.342-0.228-0.699-0.29-1.088h-0.001c-0.188-1.057-0.298-2.084-0.298-3.594
		c0.037-1.424,0.119-2.332,0.322-3.488c0.004-0.016,0.006-0.029,0.008-0.045c0.002-0.012,0.005-0.021,0.007-0.032v0.001
		c0.051-0.271,0.116-0.528,0.2-0.783c0.666-2.023,2.517-3.216,4.882-3.216c2.312,0,4.157,1.193,4.825,3.216
		c0.207,0.626,0.31,1.245,0.31,2.129c0,0.207-0.103,0.309-0.31,0.309h-6.748l0,0L205.936,32.688L205.936,32.688z"/>
	<path fill="#F05F40" d="M192.758,12.408h-4.727c-0.309,0-0.516,0.208-0.516,0.516v12.138v10.04v0.08v0.08v1.334h-0.024
		c-0.056,1.432-0.212,2.373-0.487,3.254c-0.668,2.074-2.264,3.217-4.623,3.217c-2.311,0-3.902-1.143-4.572-3.217
		c-0.357-1.143-0.514-2.386-0.514-4.668c0-2.281,0.154-3.529,0.514-4.668c0.656-2.034,2.197-3.172,4.434-3.217l2.017,0.001
		c0.31,0,0.515-0.207,0.515-0.516v-4.157c0-0.31-0.205-0.517-0.515-0.517h-0.247l-3.049-0.001c-0.023,0-0.048,0-0.07,0
		c-0.023,0-0.045,0-0.066,0h-0.07v0.001c-4.14,0.043-7.172,2.063-8.441,6.014c-0.616,1.922-0.873,3.687-0.873,7.058
		c0,3.37,0.257,5.137,0.873,7.055c1.283,3.994,4.367,6.018,8.578,6.018c3.34,0,5.396-1.242,6.576-2.957h0.049v1.867
		c0,0.314,0.207,0.52,0.517,0.52h4.726c0.309,0,0.516-0.205,0.516-0.52V12.924C193.271,12.615,193.064,12.408,192.758,12.408"/>
	<path fill="#F05F40" d="M124.091,54.757v4.728c0,0.311,0.206,0.517,0.515,0.517h17.516c0.313,0,0.52-0.207,0.52-0.517v-4.728
		c0-0.307-0.207-0.514-0.52-0.514h-17.516C124.297,54.243,124.091,54.45,124.091,54.757"/>
	<path fill="#F05F40" d="M119.644,0.167c-0.008-0.008-0.013-0.018-0.02-0.025c-0.001-0.001-0.002-0.001-0.002-0.001
		C119.532,0.052,119.404,0,119.252,0h-0.006H1.181C1.142,0,1.105,0.004,1.069,0.01c-0.01,0.002-0.019,0.006-0.03,0.008
		C1.016,0.024,0.991,0.029,0.97,0.038C0.966,0.039,0.963,0.041,0.96,0.043C0.777,0.118,0.665,0.289,0.665,0.515v0.002v58.959v0.004
		c0,0.181,0.07,0.322,0.188,0.412c0.009,0.008,0.017,0.017,0.029,0.022v0.001c0.082,0.052,0.182,0.08,0.299,0.08h118.064h0.006
		c0.174,0,0.315-0.066,0.404-0.182c0.07-0.086,0.111-0.199,0.111-0.334v-0.004V0.517V0.515
		C119.766,0.374,119.721,0.255,119.644,0.167 M6.931,54.241c-0.037,0-0.073-0.003-0.105-0.009c-0.01-0.002-0.021-0.006-0.031-0.01
		c-0.024-0.004-0.048-0.01-0.07-0.019c-0.004-0.001-0.006-0.004-0.01-0.005c-0.182-0.074-0.293-0.244-0.294-0.469V10.995V6.27
		c0-0.227,0.112-0.396,0.294-0.472C6.72,5.797,6.723,5.794,6.726,5.793c0.021-0.008,0.089-0.025,0.1-0.028
		C6.86,5.76,6.896,5.757,6.933,5.757h106.564c0.038,0,0.073,0.003,0.107,0.008c0.011,0.003,0.021,0.007,0.03,0.01
		c0.024,0.005,0.048,0.01,0.07,0.019c0.005,0.001,0.007,0.004,0.011,0.005c0.183,0.075,0.294,0.245,0.294,0.472v47.461
		c-0.001,0.225-0.113,0.395-0.293,0.469c-0.004,0.001-0.006,0.004-0.011,0.005c-0.021,0.008-0.046,0.015-0.069,0.019
		c-0.011,0.004-0.02,0.008-0.031,0.01c-0.034,0.007-0.067,0.009-0.104,0.009H6.931V54.241z"/>
</g>
</svg>
