<?xml version="1.0" encoding="utf-8"?>
<!-- Generator: Adobe Illustrator 16.0.0, SVG Export Plug-In . SVG Version: 6.00 Build 0)  -->
<!DOCTYPE svg PUBLIC "-//W3C//DTD SVG 1.1//EN" "http://www.w3.org/Graphics/SVG/1.1/DTD/svg11.dtd">
<svg version="1.1" id="Layer_1" xmlns="http://www.w3.org/2000/svg" xmlns:xlink="http://www.w3.org/1999/xlink" x="0px" y="0px"
	 width="78px" height="71px" viewBox="0 0 78 71" enable-background="new 0 0 78 71" xml:space="preserve">
<g>
	<path fill-rule="evenodd" clip-rule="evenodd" fill="#FFFFFF" d="M46.728,70.474c-3.736,0-7.369-0.007-11.001,0.007
		c-0.597,0.002-0.634-0.236-0.497-0.735c0.733-2.659,0.591-5.385,0.572-8.1c-0.004-0.577-0.083-1.123-0.465-1.572
		c-2.465-2.893-3.306-6.389-3.843-10.032c-0.662-4.488-1.914-8.81-4.019-12.856c-0.128-0.247-0.234-0.507-0.334-0.768
		c-0.227-0.588-0.386-1.241,0.259-1.609c0.661-0.376,1.371-0.184,1.813,0.432c0.557,0.776,1.016,1.624,1.509,2.445
		c0.802,1.335,1.556,2.703,2.542,3.916c0.286,0.352,0.653,0.891,1.149,0.622c0.425-0.231,0.149-0.795,0.084-1.217
		c-0.555-3.632-0.958-7.283-1.237-10.946c-0.064-0.844,0.138-1.66,1.146-1.816c0.988-0.153,1.147,0.647,1.332,1.355
		c0.855,3.282,1.701,6.566,2.572,9.844c0.096,0.361,0.11,0.969,0.552,0.961c0.531-0.01,0.498-0.635,0.576-1.041
		c0.42-2.163,0.423-4.368,0.649-6.552c0.21-2.025,0.364-4.056,0.496-6.088c0.068-1.048,0.571-1.667,1.597-1.745
		c0.871-0.066,1.339,0.646,1.337,1.891c-0.006,3.997-0.026,7.994-0.016,11.991c0.001,0.612-0.146,1.542,0.522,1.668
		c0.579,0.109,0.725-0.822,0.938-1.357c1.246-3.12,2.895-6.05,4.249-9.119c0.353-0.799,1.038-1.014,1.788-0.744
		c0.98,0.353,0.8,1.2,0.572,1.931c-1.186,3.811-2.392,7.614-3.62,11.411c-0.407,1.257-0.457,2.503-0.131,3.772
		c0.05,0.193,0.089,0.392,0.166,0.574c0.242,0.578,0.346,1.353,1.085,1.452c0.667,0.09,0.995-0.577,1.379-1.018
		c1.094-1.253,1.984-2.751,3.859-3.012c0.799-0.111,1.589-0.173,2.373,0.075c1.022,0.324,1.157,0.761,0.413,1.501
		c-0.394,0.393-0.827,0.77-1.303,1.05c-2.128,1.25-3.5,3.092-4.415,5.349c-0.479,1.183-1.074,2.318-1.649,3.459
		c-0.489,0.969-1.04,2.001-1.908,2.584c-1.635,1.099-1.781,2.659-1.858,4.354C45.848,65.354,45.926,67.892,46.728,70.474z"/>
	<path fill-rule="evenodd" clip-rule="evenodd" fill="#FFFFFF" d="M18.755,29.934c1.167,1.358,2.333,2.717,3.506,4.083
		c-2.537,0.988-5.846,0.055-7.623-2.191c-1.94-2.454-2.624-5.334-2.702-8.397c-0.01-0.368-0.004-0.721,0.511-0.78
		c4.115-0.479,11.021,3.1,11.086,8.554c0.002,0.2,0.021,0.403-0.007,0.599c-0.07,0.499,0.024,1.208-0.424,1.396
		c-0.448,0.188-0.724-0.496-1.069-0.797c-1.021-0.892-2.02-1.811-3.027-2.72C18.7,29.544,18.685,29.696,18.755,29.934z"/>
	<path fill-rule="evenodd" clip-rule="evenodd" fill="#FFFFFF" d="M50.886,21.626c-1.671,1.068-2.815,2.663-4.168,4.065
		c-1.353-1.971-0.733-5.624,1.327-7.65c1.825-1.794,4.088-2.753,6.565-3.236c2.062-0.402,2.106-0.354,2.107,1.799
		c0.002,2.877-0.981,5.409-2.833,7.576c-1.672,1.958-3.808,2.788-6.568,2.341C48.56,24.815,49.723,23.221,50.886,21.626z"/>
	<path fill-rule="evenodd" clip-rule="evenodd" fill="#FFFFFF" d="M38.258,15.971c-0.582,1.808-0.814,3.659-1.023,5.515
		c-0.034,0.302,0.122,0.723-0.215,0.875c-0.391,0.176-0.647-0.226-0.891-0.451c-2.042-1.884-2.711-4.163-1.875-6.836
		c0.783-2.502,2.289-4.535,4.152-6.335c0.388-0.374,0.677-0.463,1.053,0.033c2.302,3.037,3.438,6.377,2.587,10.193
		c-0.369,1.655-1.423,2.815-2.981,3.517c-0.654,0.295-0.971,0.354-0.915-0.599C38.267,19.917,38.599,17.952,38.258,15.971z"/>
	<path fill-rule="evenodd" clip-rule="evenodd" fill="#FFFFFF" d="M30.597,29.261c-0.599-1.786-1.175-3.504-1.75-5.221
		c-0.19,1.565,0.312,2.985,0.608,4.439c0.062,0.303,0.292,0.673,0.006,0.894c-0.273,0.212-0.612-0.066-0.889-0.19
		c-2.497-1.12-4.005-2.996-4.243-5.766c-0.222-2.588,0.486-4.981,1.667-7.256c0.192-0.37,0.356-0.681,0.9-0.426
		c3.751,1.757,6.789,7.162,5.463,10.948C32.017,27.665,31.577,28.591,30.597,29.261z"/>
	<path fill-rule="evenodd" clip-rule="evenodd" fill="#FFFFFF" d="M20.691,42.637c1.477,1.396,2.954,2.792,4.477,4.232
		c-1.461,0.903-3.37,0.952-4.958-0.003c-3.506-2.107-5.274-5.324-5.614-9.364c-0.049-0.581,0.181-0.762,0.772-0.7
		c3.034,0.316,5.879,1.16,8.325,3.04c1.901,1.461,2.664,3.428,2.286,5.814c-0.037,0.231,0.007,0.53-0.26,0.622
		c-0.271,0.094-0.403-0.192-0.567-0.346c-1.342-1.257-2.732-2.455-4.22-3.536c-0.062-0.074-0.13-0.093-0.196-0.043
		C20.633,42.432,20.602,42.526,20.691,42.637z"/>
	<path fill-rule="evenodd" clip-rule="evenodd" fill="#FFFFFF" d="M22.359,17.746c-1.976-0.841-3.58-2.224-5.617-2.669
		c1.535,1.354,3.259,2.418,4.982,3.484c-1.019,1.419-4.188,1.74-5.839,0.755c-2.918-1.739-4.379-4.545-5.453-7.615
		c-0.159-0.456,0.093-0.649,0.503-0.757c3.572-0.946,6.917-0.53,9.805,1.88C22.209,14.05,22.704,15.749,22.359,17.746z"/>
	<path fill-rule="evenodd" clip-rule="evenodd" fill="#FFFFFF" d="M52.569,39.348c1.985-0.688,3.934-1.128,5.72-2.032
		c-1.988,0.123-3.867,0.797-5.935,1.179c0.395-1.896,1.435-3.146,3.072-3.807c2.977-1.199,5.933-1.014,8.812,0.402
		c0.436,0.215,0.78,0.418,0.331,0.962c-1.913,2.32-4.051,4.34-7.099,5.024C55.557,41.507,53.953,40.874,52.569,39.348z"/>
	<path fill-rule="evenodd" clip-rule="evenodd" fill="#FFFFFF" d="M48.204,7.795c-0.772,1.543-1.069,3.225-1.521,4.862
		c-1.526-0.665-2.54-2.7-2.159-4.467c0.599-2.779,2.428-4.697,4.591-6.368c0.437-0.337,0.631-0.084,0.842,0.244
		c1.542,2.406,2.105,4.981,1.283,7.769c-0.422,1.431-1.388,2.4-2.764,2.957c-0.742,0.3-1.037,0.092-0.86-0.739
		C47.912,10.653,48.233,9.254,48.204,7.795z"/>
	<path fill-rule="evenodd" clip-rule="evenodd" fill="#FFFFFF" d="M29.299,10.028c0.57,1.221,1.14,2.441,1.714,3.671
		c-1.875,0.367-3.792-0.688-4.627-2.578c-0.946-2.136-0.832-4.355-0.417-6.588c0.089-0.48,0.314-0.583,0.755-0.434
		c2.735,0.928,4.908,2.516,5.981,5.289c0.557,1.438,0.317,2.815-0.811,4.14c-0.813-1.299-1.581-2.526-2.349-3.752
		C29.249,9.651,29.235,9.802,29.299,10.028z"/>
	<path fill-rule="evenodd" clip-rule="evenodd" fill="#FFFFFF" d="M67.491,27.544c1.64-0.675,3.267-1.079,4.941-2.172
		c-2.035,0.065-3.603,0.787-5.258,1.112c-0.002-1.75,0.776-2.997,2.43-3.604c2.542-0.934,5.021-0.638,7.411,0.603
		c0.459,0.238,0.541,0.504,0.281,0.939c-1.06,1.778-2.332,3.354-4.218,4.309C71.077,29.742,69.121,29.333,67.491,27.544z"/>
	<path fill-rule="evenodd" clip-rule="evenodd" fill="#FFFFFF" d="M25.985,55.374c0.899-0.317,1.794-0.651,2.702-0.943
		c0.314-0.102,0.658-0.49,0.975-0.162c0.283,0.294,0.002,0.687-0.081,1.019c-0.384,1.539-1.408,2.482-2.902,2.875
		c-1.906,0.502-3.789,0.236-5.653-0.31c-0.553-0.162-0.71-0.421-0.478-0.948c1.07-2.429,2.725-4.192,5.421-4.763
		c1.365-0.289,2.462,0.229,3.536,1.175c-1.326,0.643-2.539,1.23-3.752,1.818c-0.069,0.061-0.092,0.131-0.047,0.199
		C25.78,55.448,25.881,55.438,25.985,55.374z"/>
	<path fill-rule="evenodd" clip-rule="evenodd" fill="#FFFFFF" d="M8.104,40.989c1.475,0.518,2.912,0.124,4.336,0.249
		c-0.263,1.534-1.588,2.723-3.222,2.832c-2.369,0.159-4.335-0.864-6.189-2.187c-0.371-0.265-0.365-0.5-0.105-0.887
		c1.307-1.953,4.905-3.347,7.13-2.722c1.134,0.319,1.949,1,2.502,2.186C11.004,40.645,9.554,40.817,8.104,40.989z"/>
	<path fill-rule="evenodd" clip-rule="evenodd" fill="#FFFFFF" d="M59.069,27.738c-0.821,0.624-1.643,1.248-2.471,1.876
		c-0.592-1.607,0.076-3.559,1.647-4.68c1.675-1.195,3.597-1.637,5.624-1.748c0.673-0.037,0.841,0.238,0.722,0.84
		c-0.488,2.477-1.592,4.595-3.695,6.065c-1.213,0.848-2.542,1.075-4.018,0.228c0.854-0.81,1.652-1.569,2.451-2.327
		c0.052-0.103,0.155-0.279,0.129-0.305C59.33,27.555,59.203,27.716,59.069,27.738z"/>
	<path fill-rule="evenodd" clip-rule="evenodd" fill="#FFFFFF" d="M9.588,29.309c-1.43,0.46-2.831,0.737-4.344,1.5
		c1.45,0.215,2.56-0.244,3.702-0.393c0.288-0.037,0.65-0.348,0.874-0.014c0.185,0.277-0.05,0.615-0.166,0.908
		C9.168,32.537,8.2,33.228,6.969,33.47c-2.026,0.398-3.967,0.092-5.786-0.938c-0.651-0.369-0.846-0.726-0.336-1.391
		c0.96-1.254,2.031-2.376,3.45-3.096C6.289,27.034,8.053,27.446,9.588,29.309z"/>
	<path fill-rule="evenodd" clip-rule="evenodd" fill="#FFFFFF" d="M63.859,16.208c-0.981,0.516-1.963,1.031-2.945,1.546
		c-0.501-1.471,0.115-3.089,1.559-3.909c1.815-1.03,3.791-1.112,5.808-0.864c0.547,0.067,0.772,0.324,0.625,0.882
		c-0.575,2.181-1.716,3.949-3.762,5.002c-1.35,0.695-2.683,0.598-4.016-0.355c1.069-0.773,2.092-1.513,3.115-2.253
		C64.152,15.951,63.989,16.211,63.859,16.208z"/>
	<path fill-rule="evenodd" clip-rule="evenodd" fill="#FFFFFF" d="M8.891,23.054C7.778,22.752,6.911,21.995,5.513,22
		c1.198,0.637,2.171,1.154,3.219,1.71c-1.126,1.012-2.306,1.172-3.545,0.737c-2.045-0.718-3.369-2.199-4.212-4.164
		c-0.241-0.563-0.077-0.798,0.484-0.911c1.625-0.327,3.251-0.437,4.861,0.043C8.027,19.923,8.95,21.223,8.891,23.054z"/>
	<path fill-rule="evenodd" clip-rule="evenodd" fill="#FFFFFF" d="M18.366,49.845c-0.814,0.09-1.472,0.154-2.127,0.238
		c-0.614,0.078-1.225,0.177-1.81,0.438c1.072,0,2.144,0.017,3.215-0.006c0.684-0.014,0.763,0.241,0.426,0.772
		c-0.622,0.978-1.535,1.521-2.656,1.635c-1.992,0.202-3.775-0.368-5.366-1.59c-0.556-0.427-0.574-0.744-0.021-1.191
		c1.446-1.168,2.954-2.188,4.892-2.282C16.403,47.788,17.5,48.42,18.366,49.845z"/>
	<path fill-rule="evenodd" clip-rule="evenodd" fill="#FFFFFF" d="M59.462,7.521C58.014,8.057,57.01,8.84,55.845,9.48
		c-0.376-1.534,0.147-2.612,1.284-3.395c1.518-1.046,3.216-1.324,5.027-1.019c0.631,0.106,0.906,0.326,0.677,1.031
		c-0.448,1.384-1.021,2.678-2.077,3.718c-1.019,1.003-2.22,1.177-3.537,0.799c-0.254-0.073-0.599-0.215-0.68-0.415
		c-0.127-0.314,0.283-0.409,0.483-0.57C57.782,9.016,58.644,8.522,59.462,7.521z"/>
	<path fill-rule="evenodd" clip-rule="evenodd" fill="#FFFFFF" d="M68.471,35.491c1.088-0.164,2.091,0.38,3.267,0.116
		c-1.05-0.488-2.092-0.497-3.066-0.758c0.605-1.446,2.176-2.062,3.88-1.477c1.392,0.478,2.495,1.384,3.47,2.468
		c0.337,0.375,0.385,0.622-0.079,0.938c-1.632,1.112-3.393,1.587-5.327,1.046C69.47,37.503,68.7,36.758,68.471,35.491z"/>
	<path fill-rule="evenodd" clip-rule="evenodd" fill="#FFFFFF" d="M36.024,4.758c0.152,0.579,0.775,0.896,0.87,1.516
		c-1.753,0.348-2.802-0.272-3.553-2.124c-0.457-1.125-0.97-2.65-0.147-3.372c0.824-0.723,2.16,0.243,3.134,0.826
		c1.627,0.974,2.002,2.248,1.306,4.134c-0.653-0.211-0.802-0.953-1.333-1.268C35.962,4.33,35.926,4.48,36.024,4.758z"/>
	<path fill-rule="evenodd" clip-rule="evenodd" fill="#FFFFFF" d="M21.911,9.486c-1.619,0.001-2.484-0.579-2.914-1.912
		c-0.404-1.255-0.271-2.515,0.04-3.769c0.1-0.401,0.281-0.604,0.755-0.522c1.539,0.265,3.581,2.456,3.671,4.024
		c0.042,0.728-0.139,1.403-0.788,1.953C22.169,8.38,21.68,7.53,21.191,6.68C21.1,7.695,21.704,8.491,21.911,9.486z"/>
	<path fill-rule="evenodd" clip-rule="evenodd" fill="#FFFFFF" d="M59.069,27.738c0.388-0.314,0.775-0.628,1.163-0.942
		c-0.121,0.572-0.425,0.959-0.902,1.197C59.243,27.908,59.156,27.823,59.069,27.738z"/>
	<path fill-rule="evenodd" clip-rule="evenodd" fill="#FFFFFF" d="M36.024,4.758c-0.345-0.312-0.595-0.672-0.701-1.239
		c0.501,0.262,0.763,0.582,0.978,0.951C36.208,4.566,36.116,4.663,36.024,4.758z"/>
	<path fill-rule="evenodd" clip-rule="evenodd" fill="#FFFFFF" d="M29.299,10.028c-0.252-0.244-0.377-0.533-0.333-0.901
		c0.348,0.103,0.487,0.356,0.579,0.65C29.463,9.861,29.381,9.945,29.299,10.028z"/>
	<path fill-rule="evenodd" clip-rule="evenodd" fill="#FFFFFF" d="M20.691,42.637c-0.275-0.11-0.39-0.325-0.465-0.617
		c0.381-0.042,0.546,0.163,0.706,0.377C20.852,42.477,20.772,42.557,20.691,42.637z"/>
	<path fill-rule="evenodd" clip-rule="evenodd" fill="#FFFFFF" d="M18.755,29.934c-0.222-0.154-0.437-0.312-0.381-0.648
		c0.327-0.038,0.482,0.174,0.632,0.395C18.923,29.765,18.839,29.85,18.755,29.934z"/>
	<path fill-rule="evenodd" clip-rule="evenodd" fill="#FFFFFF" d="M25.985,55.374c-0.224,0.181-0.536,0.398-0.719,0.126
		c-0.11-0.163,0.259-0.31,0.486-0.365C25.83,55.215,25.908,55.294,25.985,55.374z"/>
	<path fill-rule="evenodd" clip-rule="evenodd" fill="#FFFFFF" d="M63.859,16.208c0.22-0.242,0.478-0.4,0.833-0.387
		c-0.016,0.303-0.213,0.391-0.449,0.437C64.115,16.241,63.987,16.224,63.859,16.208z"/>
</g>
</svg>
